<svg xmlns="http://www.w3.org/2000/svg"  viewBox="0 0 128 128" width="128px" height="128px"><path fill="#979FAA" d="M43 58.5H85V70.5H43z"/><path fill="#6C717A" d="M43 70.5L85 70.5 85 65.5 53 65.5 53 58.5 43 58.5z"/><path fill="#454B54" d="M85,73.5H43c-1.7,0-3-1.3-3-3v-12c0-1.7,1.3-3,3-3h42c1.7,0,3,1.3,3,3v12C88,72.2,86.7,73.5,85,73.5z M46,67.5h36v-6H46V67.5z"/><path fill="#F3797B" d="M29 34.5L29 44.5 15 44.5 15 84.5 29 84.5 29 93.5 43 93.5 43 34.5zM99 44.5L99 34.5 85 34.5 85 93.5 99 93.5 99 84.5 113 84.5 113 44.5z"/><path fill="#C65C61" d="M29 79.5H43V93.5H29zM15 70.5H29V84.5H15z"/><path fill="#FFF" d="M15 44.5H29V53.5H15zM29 34.5H43V43.5H29z"/><path fill="#C65C61" d="M99 70.5H113V84.5H99zM85 79.5H99V93.5H85z"/><path fill="#FFF" d="M85 34.5H99V43.5H85zM99 44.5H113V53.5H99z"/><path fill="#454B54" d="M29,87.5H15c-1.7,0-3-1.3-3-3v-40c0-1.7,1.3-3,3-3h14c1.7,0,3,1.3,3,3s-1.3,3-3,3H18v34h11c1.7,0,3,1.3,3,3S30.7,87.5,29,87.5z"/><path fill="#454B54" d="M12 72.5c-1.7 0-3-1.3-3-3v-10c0-1.7 1.3-3 3-3s3 1.3 3 3v10C15 71.2 13.7 72.5 12 72.5zM116 72.5c-1.7 0-3-1.3-3-3v-10c0-1.7 1.3-3 3-3s3 1.3 3 3v10C119 71.2 117.7 72.5 116 72.5zM43 96.5H29c-1.7 0-3-1.3-3-3v-29c0-1.7 1.3-3 3-3s3 1.3 3 3v26h8v-53h-8v13c0 1.7-1.3 3-3 3s-3-1.3-3-3v-16c0-1.7 1.3-3 3-3h14c1.7 0 3 1.3 3 3v59C46 95.2 44.7 96.5 43 96.5z"/><path fill="#454B54" d="M113,87.5H99c-1.7,0-3-1.3-3-3s1.3-3,3-3h11v-34H99c-1.7,0-3-1.3-3-3s1.3-3,3-3h14c1.7,0,3,1.3,3,3v40C116,86.2,114.7,87.5,113,87.5z"/><path fill="#454B54" d="M99,96.5H85c-1.7,0-3-1.3-3-3v-59c0-1.7,1.3-3,3-3h14c1.7,0,3,1.3,3,3v16c0,1.7-1.3,3-3,3s-3-1.3-3-3v-13h-8v53h8V64c0-1.7,1.3-3,3-3s3,1.3,3,3v29.5C102,95.2,100.7,96.5,99,96.5z"/></svg>